<?xml version="1.0" encoding="UTF-8" standalone="no"?>
<!-- Created with Inkscape (http://www.inkscape.org/) -->

<svg
   width="17.231762mm"
   height="16.201187mm"
   viewBox="0 0 17.231762 16.201187"
   version="1.1"
   id="svg6190"
   sodipodi:docname="playbuttonshadow.svg"
   inkscape:version="1.2.2 (732a01da63, 2022-12-09)"
   xmlns:inkscape="http://www.inkscape.org/namespaces/inkscape"
   xmlns:sodipodi="http://sodipodi.sourceforge.net/DTD/sodipodi-0.dtd"
   xmlns="http://www.w3.org/2000/svg"
   xmlns:svg="http://www.w3.org/2000/svg">
  <sodipodi:namedview
     id="namedview6192"
     pagecolor="#ffffff"
     bordercolor="#000000"
     borderopacity="0.25"
     inkscape:showpageshadow="2"
     inkscape:pageopacity="0.0"
     inkscape:pagecheckerboard="0"
     inkscape:deskcolor="#d1d1d1"
     inkscape:document-units="mm"
     showgrid="false"
     inkscape:zoom="5.9081369"
     inkscape:cx="31.482006"
     inkscape:cy="27.250553"
     inkscape:window-width="1920"
     inkscape:window-height="1009"
     inkscape:window-x="-8"
     inkscape:window-y="-8"
     inkscape:window-maximized="1"
     inkscape:current-layer="layer1" />
  <defs
     id="defs6187">
    <inkscape:path-effect
       effect="perspective-envelope"
       up_left_point="126.73424,125.04894"
       up_right_point="133.51736,124.10851"
       down_left_point="129.17491,127.41963"
       down_right_point="131.22224,127.52039"
       id="path-effect40497"
       is_visible="true"
       lpeversion="1"
       deform_type="perspective"
       horizontal_mirror="false"
       vertical_mirror="false"
       overflow_perspective="false" />
    <inkscape:path-effect
       effect="perspective-envelope"
       up_left_point="124.05581,112.47161"
       up_right_point="130.01193,114.37488"
       down_left_point="124.01103,123.55537"
       down_right_point="130.14628,125.48104"
       id="path-effect40410"
       is_visible="true"
       lpeversion="1"
       deform_type="perspective"
       horizontal_mirror="false"
       vertical_mirror="false"
       overflow_perspective="false" />
    <inkscape:path-effect
       effect="simplify"
       id="path-effect9043"
       is_visible="true"
       lpeversion="1"
       steps="5"
       threshold="0.0042"
       smooth_angles="0"
       helper_size="20"
       simplify_individual_paths="false"
       simplify_just_coalesce="false" />
    <inkscape:path-effect
       effect="offset"
       id="path-effect9041"
       is_visible="true"
       lpeversion="1.2"
       linejoin_type="miter"
       unit="px"
       offset="-0.355906"
       miter_limit="14.9"
       attempt_force_join="false"
       update_on_knot_move="true" />
    <inkscape:path-effect
       effect="perspective-envelope"
       up_left_point="130.28064,114.63238"
       up_right_point="136.57263,112.72911"
       down_left_point="130.45977,125.53701"
       down_right_point="136.75176,123.25309"
       id="path-effect40410-2"
       is_visible="true"
       lpeversion="1"
       deform_type="perspective"
       horizontal_mirror="false"
       vertical_mirror="false"
       overflow_perspective="false" />
    <inkscape:path-effect
       effect="perspective-envelope"
       up_left_point="122.30928,114.18455"
       up_right_point="138.05046,114.31889"
       down_left_point="122.37646,125.71614"
       down_right_point="138.2072,125.78332"
       id="path-effect40410-8"
       is_visible="true"
       lpeversion="1"
       deform_type="perspective"
       horizontal_mirror="false"
       vertical_mirror="false"
       overflow_perspective="false" />
  </defs>
  <g
     inkscape:label="Layer 1"
     inkscape:groupmode="layer"
     id="layer1"
     transform="translate(-121.70472,-112.15813)">
    <path
       style="fill:#ffffff;fill-opacity:1;stroke-width:0.256577"
       id="rect40494"
       width="4.0849485"
       height="4.8449392"
       x="128.35762"
       y="122.52991"
       inkscape:path-effect="#path-effect40497"
       d="m 126.73424,125.04894 6.78312,-0.94043 -2.29512,3.41188 -2.04733,-0.10076 z"
       sodipodi:type="rect" />
    <path
       style="fill:#ffffff;fill-opacity:1;stroke-width:0.264583"
       id="rect40407"
       width="6.7174306"
       height="11.419631"
       x="123.85429"
       y="113.18813"
       inkscape:path-effect="#path-effect40410"
       d="m 124.05581,112.47161 5.95612,1.90327 0.13435,11.10616 -6.13525,-1.92567 z"
       sodipodi:type="rect" />
    <path
       style="fill:#ffffff;fill-opacity:1;stroke-width:0.264583"
       id="rect40407-3"
       width="6.7174306"
       height="11.419631"
       x="124.8619"
       y="117.74479"
       sodipodi:type="rect"
       d="m 122.30928,114.18455 15.74118,0.13434 0.15674,11.46443 -15.83074,-0.0672 z"
       inkscape:path-effect="#path-effect40410-8" />
    <path
       style="fill:#ffffff;fill-opacity:1;stroke-width:0.264583"
       id="rect40407-2"
       width="6.7174306"
       height="11.419631"
       x="129.13867"
       y="114.72195"
       inkscape:path-effect="#path-effect40410-2"
       d="m 130.28064,114.63238 6.29199,-1.90327 0.17913,10.52398 -6.29199,2.28392 z"
       sodipodi:type="rect" />
    <path
       id="path856"
       style="fill:#999999;fill-opacity:1;stroke-width:0.0430982"
       d="m 136.78145,112.3836 c -0.8183,0.01 -2.36166,0.21255 -3.28352,0.4811 -1.13108,0.32951 -1.92341,0.73533 -2.70681,1.38597 l -0.36794,0.3054 -0.23513,-0.20929 c -1.31766,-1.17394 -3.29629,-1.8241 -5.94589,-1.95336 -0.40723,-0.0199 -0.56497,-0.0123 -0.64647,0.031 l -0.108,0.0574 -0.0212,0.73174 -0.0217,0.73122 -0.58808,0.0217 -0.5886,0.0212 -0.0946,0.0863 c -0.0523,0.0473 -0.12729,0.14429 -0.16639,0.21549 l -0.0708,0.12919 v 5.88647 5.88594 l 0.10749,0.15917 c 0.0593,0.0875 0.18678,0.19733 0.28318,0.24443 l 0.17519,0.0858 h 2.8515 2.85202 l 0.0253,0.11834 c 0.1442,0.67395 0.68703,1.29353 1.27124,1.45056 1.43741,0.38635 2.91229,-0.28314 3.12539,-1.41904 l 0.0274,-0.14624 2.87269,-0.0124 2.87217,-0.0124 0.13488,-0.0739 c 0.44202,-0.24203 0.40911,0.29673 0.39481,-6.42028 l -0.0124,-5.80429 -0.0889,-0.11886 c -0.0489,-0.0655 -0.14234,-0.15935 -0.20774,-0.20825 l -0.11885,-0.0889 -0.53485,-0.0139 -0.53486,-0.0145 -0.0114,-0.6966 c -0.009,-0.55095 -0.0242,-0.69423 -0.0693,-0.68523 -0.0319,0.007 -0.0449,-0.008 -0.03,-0.032 0.0541,-0.0875 -0.16807,-0.12322 -0.54002,-0.11885 z m -0.73019,0.89297 h 0.23668 0.23719 v 4.99504 4.99453 l -0.57102,0.0294 c -1.63874,0.0857 -2.87636,0.44883 -3.98477,1.16841 -0.19462,0.12635 -0.50966,0.37862 -0.70022,0.56069 l -0.34675,0.33072 v -5.05137 -5.05137 l 0.1261,-0.12609 c 0.0693,-0.0693 0.14194,-0.12609 0.16174,-0.12609 0.0198,0 0.0596,-0.0369 0.0879,-0.0822 0.28784,-0.46091 2.95281,-1.51108 3.83698,-1.51206 0.0427,-4e-5 0.0543,0.83768 0.0543,4.04523 v 4.04524 l -0.42065,0.0305 c -1.9395,0.14117 -4.04505,1.35224 -3.40186,1.95647 0.16826,0.15808 0.34912,0.12519 0.61133,-0.1111 0.83333,-0.75097 2.80433,-1.32231 3.70727,-1.07435 0.10327,0.0284 0.15445,0.0168 0.24805,-0.0569 l 0.11782,-0.0925 v -4.4359 z m -11.67991,5.1e-4 h 0.23823 0.23875 l -0.003,4.32015 c -0.001,2.37632 -0.002,4.37951 -0.001,4.45141 0.001,0.0999 0.0329,0.14982 0.1354,0.21032 l 0.13435,0.0791 0.1664,-0.0548 c 0.7499,-0.24749 2.6442,0.30881 3.62097,1.0635 0.37963,0.29331 0.53072,0.30411 0.65681,0.046 0.33277,-0.68116 -1.65311,-1.77145 -3.4091,-1.87172 l -0.44131,-0.0253 v -4.04988 -4.04988 l 0.24029,0.0305 c 1.27986,0.15991 2.76166,0.79951 3.69228,1.5937 l 0.33383,0.28474 v 5.01984 c 0,2.76082 -0.005,5.01889 -0.0109,5.0183 -0.006,-6.5e-4 -0.13716,-0.12212 -0.29145,-0.27027 -1.18594,-1.13871 -3.02087,-1.78577 -5.09582,-1.79627 l -0.20464,-0.001 v -4.99918 z m 2.13372,1.36943 -0.11885,0.094 c -0.0913,0.0725 -0.11834,0.13114 -0.11834,0.25528 0,0.26019 0.0572,0.29764 0.6904,0.45424 0.85051,0.21036 1.5743,0.56255 2.10168,1.02216 0.21614,0.18833 0.43784,0.15509 0.56534,-0.0842 0.28265,-0.53054 -1.47085,-1.59109 -2.83652,-1.71565 z m 7.74062,0.009 c -1.43321,0 -3.43108,1.27561 -2.8727,1.834 h 5.2e-4 c 0.1681,0.1681 0.32325,0.1406 0.60616,-0.10697 0.55575,-0.48632 1.49649,-0.90816 2.26912,-1.01751 0.53645,-0.076 0.53404,-0.70952 -0.003,-0.70952 z m -11.33936,0.1726 h 0.27853 0.27802 l -0.004,4.55993 c -0.002,2.50788 0.01,4.60239 0.0264,4.65449 0.0397,0.12519 0.0711,0.12912 1.12345,0.15452 2.23482,0.054 4.44968,1.06695 5.21673,2.3859 l 0.0811,0.14004 h 0.52658 0.52658 l 0.0971,-0.14004 c 1.05555,-1.52591 3.0757,-2.40244 5.5361,-2.40244 h 0.69453 l 0.0713,-0.0791 0.0713,-0.0785 v -4.59766 -4.59713 h 0.2806 0.28009 v 5.40897 5.40846 l -1.92908,0.001 c -3.35561,10e-4 -4.00448,0.18075 -4.58887,1.27072 l -0.18345,0.34469 -0.84491,0.0114 c -0.9559,0.0132 -0.86704,0.0468 -1.04955,-0.39325 -0.42194,-1.01735 -1.23137,-1.23455 -4.60644,-1.23455 h -1.90272 l 0.008,-3.22151 c 0.005,-1.77187 0.01,-4.206 0.0108,-5.40897 z m 11.35796,1.54616 c -0.91857,0.004 -2.97644,1.00696 -3.00188,1.52445 -0.0112,0.22785 0.0163,0.31808 0.12557,0.40928 0.17935,0.14964 0.26867,0.12113 0.69866,-0.22221 0.65464,-0.5227 1.49896,-0.89998 2.15026,-0.96118 0.49692,-0.0467 0.68005,-0.61723 0.2341,-0.72916 -0.0596,-0.0149 -0.12887,-0.0215 -0.20671,-0.0212 z m -7.65121,0.002 c -0.12531,0.002 -0.22578,0.0241 -0.29249,0.0708 -0.30888,0.21635 -0.0876,0.59505 0.40256,0.68885 0.74763,0.14305 1.49974,0.48825 2.10581,0.96635 0.54834,0.43257 0.8585,0.35817 0.8015,-0.19224 -0.0579,-0.55905 -2.14024,-1.54617 -3.01738,-1.53375 z m 7.53339,1.80092 c -0.6661,-3e-4 -1.93471,0.51823 -2.56884,1.11931 l -0.31057,0.29456 v 0.185 c 0,0.13907 0.0264,0.21144 0.10593,0.29094 0.16552,0.16551 0.33336,0.13112 0.60513,-0.12299 0.55282,-0.5169 1.38981,-0.89346 2.31459,-1.0418 0.31684,-0.0508 0.44205,-0.44177 0.20361,-0.63665 -0.0743,-0.0607 -0.19614,-0.0883 -0.34985,-0.0884 z m -7.49774,0.0129 c -0.64499,0 -0.47159,0.65281 0.20206,0.76068 0.65103,0.10425 1.40508,0.45279 1.98592,0.9188 0.41368,0.33192 0.52108,0.36311 0.68678,0.19741 0.56901,-0.56901 -1.43417,-1.87689 -2.87476,-1.87689 z m 7.5737,1.6862 c -0.72665,-0.005 -2.12451,0.60348 -2.75073,1.22628 l -0.20464,0.20361 v 0.18397 c 0,0.25128 0.0343,0.3204 0.18913,0.3855 l 0.13229,0.0558 0.13023,-0.0667 c 0.0716,-0.0368 0.22719,-0.14813 0.34571,-0.24753 0.66594,-0.55829 1.4118,-0.87859 2.31356,-0.9927 0.46153,-0.0584 0.59913,-0.68745 0.15606,-0.71365 -0.0307,-0.002 -0.0947,-0.0106 -0.14211,-0.0196 -0.0511,-0.01 -0.10792,-0.0146 -0.1695,-0.015 z m -7.62382,0.005 c -0.17044,0.002 -0.30318,0.034 -0.37931,0.10284 -0.28663,0.2594 -0.0392,0.60029 0.48266,0.66559 0.76857,0.0962 1.64425,0.50484 2.30167,1.07384 0.55373,0.47925 0.89369,-0.14389 0.37104,-0.68006 -0.59314,-0.60847 -2.03748,-1.17002 -2.77606,-1.16221 z m 10.09912,4.64468 c -1.29951,0 -2.3282,0.22928 -3.53415,0.78807 l -0.40101,0.18603 0.72812,0.0109 c 0.54827,0.008 0.8781,-0.0107 1.33222,-0.076 0.33186,-0.0477 1.01066,-0.10924 1.50844,-0.13694 1.03181,-0.0574 1.05575,-0.0663 1.05575,-0.37156 0,-0.14344 -0.0257,-0.21435 -0.10594,-0.29455 l -0.10542,-0.10594 z m -13.02246,0.0217 -0.10904,0.12609 c -0.0891,0.10369 -0.10509,0.15662 -0.0863,0.29662 0.036,0.26823 0.0522,0.27403 0.99838,0.32763 0.47373,0.0269 1.11415,0.0771 1.42266,0.11162 0.30851,0.0345 0.63848,0.0695 0.73328,0.0775 0.43491,0.0385 1.50614,0.0271 1.44384,-0.0155 -0.79034,-0.54056 -2.27589,-0.91236 -3.67781,-0.92036 z" />
  </g>
  <g
     inkscape:label="Layer 1 copy"
     inkscape:groupmode="layer"
     id="g9096"
     transform="translate(-121.70472,-112.15813)">
    <path
       id="path9094"
       style="fill:#1a1a1a;stroke-width:0.0430982"
       d="m 136.54985,112.15875 c -0.8183,0.01 -2.36166,0.21255 -3.28352,0.4811 -1.13108,0.32951 -1.92341,0.73533 -2.70681,1.38597 l -0.36794,0.3054 -0.23513,-0.20929 c -1.31766,-1.17394 -3.29629,-1.8241 -5.94589,-1.95336 -0.40723,-0.0199 -0.56497,-0.0123 -0.64647,0.031 l -0.108,0.0574 -0.0212,0.73174 -0.0217,0.73122 -0.58808,0.0217 -0.5886,0.0212 -0.0946,0.0863 c -0.0523,0.0473 -0.12729,0.14429 -0.16639,0.21549 l -0.0708,0.12919 v 5.88647 5.88594 l 0.10749,0.15917 c 0.0593,0.0875 0.18678,0.19733 0.28318,0.24443 l 0.17519,0.0858 h 2.8515 2.85202 l 0.0253,0.11834 c 0.1442,0.67395 0.68703,1.29353 1.27124,1.45056 1.43741,0.38635 2.91229,-0.28314 3.12539,-1.41904 l 0.0274,-0.14624 2.87269,-0.0124 2.87217,-0.0124 0.13488,-0.0739 c 0.44202,-0.24203 0.40911,0.29673 0.39481,-6.42028 l -0.0124,-5.80429 -0.0889,-0.11886 c -0.0489,-0.0655 -0.14234,-0.15935 -0.20774,-0.20825 l -0.11885,-0.0889 -0.53485,-0.014 -0.53486,-0.0145 -0.0114,-0.6966 c -0.009,-0.55095 -0.0241,-0.69423 -0.0692,-0.68523 -0.0319,0.007 -0.0449,-0.008 -0.03,-0.032 0.0541,-0.0875 -0.16807,-0.12322 -0.54002,-0.11885 z m -0.73019,0.89297 h 0.23668 0.23719 v 4.99504 4.99453 l -0.57102,0.0294 c -1.63874,0.0857 -2.87636,0.44883 -3.98477,1.16841 -0.19462,0.12635 -0.50966,0.37862 -0.70022,0.56069 l -0.34675,0.33072 v -5.05137 -5.05137 l 0.1261,-0.12609 c 0.0693,-0.0693 0.14194,-0.12609 0.16174,-0.12609 0.0198,0 0.0596,-0.0369 0.0879,-0.0822 0.28784,-0.46091 2.95281,-1.51108 3.83698,-1.51206 0.0427,-4e-5 0.0543,0.83768 0.0543,4.04523 v 4.04524 l -0.42065,0.0305 c -1.9395,0.14117 -4.04505,1.35224 -3.40186,1.95647 0.16826,0.15808 0.34912,0.12519 0.61133,-0.1111 0.83333,-0.75097 2.80433,-1.32231 3.70727,-1.07435 0.10327,0.0284 0.15445,0.0168 0.24805,-0.0568 l 0.11782,-0.0925 v -4.4359 z m -11.67991,5.1e-4 h 0.23823 0.23875 l -0.003,4.32015 c -0.001,2.37632 -0.002,4.37951 -0.001,4.45141 0.001,0.0999 0.0329,0.14982 0.1354,0.21032 l 0.13435,0.0791 0.1664,-0.0548 c 0.7499,-0.24749 2.6442,0.30881 3.62097,1.0635 0.37963,0.29331 0.53072,0.30411 0.65681,0.046 0.33277,-0.68116 -1.65311,-1.77145 -3.4091,-1.87172 l -0.44131,-0.0253 v -4.04988 -4.04988 l 0.24029,0.0305 c 1.27986,0.15991 2.76166,0.79951 3.69228,1.5937 l 0.33383,0.28474 v 5.01984 c 0,2.76082 -0.005,5.01889 -0.0109,5.0183 -0.006,-6.5e-4 -0.13716,-0.12212 -0.29145,-0.27027 -1.18594,-1.13871 -3.02087,-1.78577 -5.09582,-1.79627 l -0.20464,-0.001 v -4.99918 z m 2.13372,1.36943 -0.11885,0.094 c -0.0913,0.0725 -0.11834,0.13114 -0.11834,0.25528 0,0.26019 0.0572,0.29764 0.6904,0.45424 0.85051,0.21036 1.5743,0.56255 2.10168,1.02216 0.21614,0.18833 0.43784,0.15509 0.56534,-0.0842 0.28265,-0.53054 -1.47085,-1.59109 -2.83652,-1.71565 z m 7.74062,0.009 c -1.43321,0 -3.43108,1.27561 -2.8727,1.834 h 5.2e-4 c 0.1681,0.1681 0.32325,0.1406 0.60616,-0.10697 0.55575,-0.48632 1.49649,-0.90816 2.26912,-1.01751 0.53645,-0.076 0.53404,-0.70952 -0.003,-0.70952 z m -11.33936,0.1726 h 0.27853 0.27802 l -0.004,4.55993 c -0.002,2.50788 0.01,4.60239 0.0263,4.65449 0.0397,0.12519 0.0711,0.12912 1.12345,0.15452 2.23482,0.054 4.44968,1.06695 5.21673,2.3859 l 0.0811,0.14004 h 0.52658 0.52658 l 0.0971,-0.14004 c 1.05555,-1.52591 3.0757,-2.40244 5.5361,-2.40244 h 0.69453 l 0.0713,-0.0791 0.0713,-0.0785 v -4.59766 -4.59713 h 0.2806 0.28009 v 5.40897 5.40846 l -1.92908,0.001 c -3.35561,0.001 -4.00448,0.18075 -4.58887,1.27072 l -0.18345,0.34469 -0.84491,0.0114 c -0.9559,0.0132 -0.86704,0.0468 -1.04955,-0.39325 -0.42194,-1.01735 -1.23137,-1.23455 -4.60644,-1.23455 h -1.90272 l 0.008,-3.22151 c 0.005,-1.77187 0.01,-4.206 0.0109,-5.40897 z m 11.35796,1.54616 c -0.91857,0.004 -2.97644,1.00696 -3.00188,1.52445 -0.0112,0.22785 0.0163,0.31808 0.12557,0.40928 0.17935,0.14964 0.26867,0.12113 0.69866,-0.22221 0.65464,-0.5227 1.49896,-0.89998 2.15026,-0.96118 0.49692,-0.0467 0.68005,-0.61723 0.2341,-0.72916 -0.0596,-0.0149 -0.12887,-0.0215 -0.20671,-0.0212 z m -7.65121,0.002 c -0.12531,0.002 -0.22578,0.0241 -0.29249,0.0708 -0.30888,0.21635 -0.0876,0.59505 0.40256,0.68885 0.74763,0.14305 1.49974,0.48825 2.10581,0.96635 0.54834,0.43257 0.8585,0.35817 0.8015,-0.19224 -0.0579,-0.55905 -2.14024,-1.54617 -3.01738,-1.53375 z m 7.53339,1.80092 c -0.6661,-3e-4 -1.93471,0.51823 -2.56884,1.11931 l -0.31057,0.29456 v 0.185 c 0,0.13907 0.0264,0.21144 0.10593,0.29094 0.16552,0.16551 0.33336,0.13112 0.60513,-0.12299 0.55282,-0.5169 1.38981,-0.89346 2.31459,-1.0418 0.31684,-0.0508 0.44205,-0.44177 0.20361,-0.63665 -0.0743,-0.0607 -0.19614,-0.0883 -0.34985,-0.0884 z m -7.49774,0.0129 c -0.64499,0 -0.47159,0.65281 0.20206,0.76068 0.65103,0.10425 1.40508,0.45279 1.98592,0.9188 0.41368,0.33192 0.52108,0.36311 0.68678,0.19741 0.56901,-0.56901 -1.43417,-1.87689 -2.87476,-1.87689 z m 7.5737,1.6862 c -0.72665,-0.005 -2.12451,0.60348 -2.75073,1.22628 l -0.20464,0.20361 v 0.18397 c 0,0.25128 0.0343,0.3204 0.18913,0.3855 l 0.13229,0.0558 0.13023,-0.0667 c 0.0716,-0.0368 0.22719,-0.14813 0.34571,-0.24753 0.66594,-0.55829 1.4118,-0.87859 2.31356,-0.9927 0.46153,-0.0584 0.59913,-0.68745 0.15606,-0.71365 -0.0307,-0.002 -0.0947,-0.0106 -0.14211,-0.0196 -0.0511,-0.01 -0.10792,-0.0146 -0.1695,-0.015 z m -7.62382,0.005 c -0.17044,0.002 -0.30318,0.0339 -0.37931,0.10284 -0.28663,0.2594 -0.0392,0.60029 0.48266,0.66559 0.76857,0.0962 1.64425,0.50484 2.30167,1.07384 0.55373,0.47925 0.89369,-0.14389 0.37104,-0.68006 -0.59314,-0.60847 -2.03748,-1.17002 -2.77606,-1.16221 z m 10.09912,4.64468 c -1.29951,0 -2.3282,0.22928 -3.53415,0.78807 l -0.40101,0.18603 0.72812,0.0109 c 0.54827,0.008 0.8781,-0.0107 1.33222,-0.076 0.33186,-0.0477 1.01066,-0.10924 1.50844,-0.13694 1.03181,-0.0574 1.05575,-0.0663 1.05575,-0.37156 0,-0.14344 -0.0257,-0.21435 -0.10594,-0.29455 l -0.10542,-0.10594 z m -13.02246,0.0217 -0.10904,0.12609 c -0.0891,0.10369 -0.10509,0.15662 -0.0863,0.29662 0.036,0.26823 0.0522,0.27403 0.99838,0.32763 0.47373,0.0269 1.11415,0.0771 1.42266,0.11162 0.30851,0.0345 0.63848,0.0695 0.73328,0.0775 0.43491,0.0385 1.50614,0.0271 1.44384,-0.0155 -0.79034,-0.54056 -2.27589,-0.91236 -3.67781,-0.92036 z" />
  </g>
</svg>
