<?xml version="1.0" encoding="UTF-8" standalone="no"?>
<!-- Created with Inkscape (http://www.inkscape.org/) -->

<svg
   width="17mm"
   height="15.976337mm"
   viewBox="0 0 17 15.976338"
   version="1.1"
   id="svg5"
   xml:space="preserve"
   inkscape:version="1.2.2 (732a01da63, 2022-12-09)"
   sodipodi:docname="playbutton.svg"
   xmlns:inkscape="http://www.inkscape.org/namespaces/inkscape"
   xmlns:sodipodi="http://sodipodi.sourceforge.net/DTD/sodipodi-0.dtd"
   xmlns="http://www.w3.org/2000/svg"
   xmlns:svg="http://www.w3.org/2000/svg"><sodipodi:namedview
     id="namedview7"
     pagecolor="#ffffff"
     bordercolor="#000000"
     borderopacity="0.25"
     inkscape:showpageshadow="2"
     inkscape:pageopacity="0.0"
     inkscape:pagecheckerboard="0"
     inkscape:deskcolor="#d1d1d1"
     inkscape:document-units="mm"
     showgrid="false"
     inkscape:zoom="1.4770342"
     inkscape:cx="66.349173"
     inkscape:cy="75.827627"
     inkscape:window-width="1920"
     inkscape:window-height="1009"
     inkscape:window-x="-8"
     inkscape:window-y="-8"
     inkscape:window-maximized="1"
     inkscape:current-layer="layer1" /><defs
     id="defs2" /><g
     inkscape:label="Layer 1"
     inkscape:groupmode="layer"
     id="layer1"
     transform="translate(-82.637241,-131.5818)"><path
       style="fill:#ffffff;stroke-width:0.0430982"
       d="m 90.203146,147.44799 c -0.584213,-0.15703 -1.127197,-0.77646 -1.271398,-1.45041 l -0.02536,-0.11852 h -2.851604 -2.8516 l -0.175227,-0.0856 c -0.09637,-0.0471 -0.22371,-0.15716 -0.282971,-0.24467 l -0.107745,-0.15911 v -5.88605 -5.88606 l 0.07101,-0.12939 c 0.03906,-0.0712 0.113762,-0.16814 0.166015,-0.21549 l 0.095,-0.0861 0.588206,-0.0216 0.588205,-0.0215 0.02155,-0.73148 0.02155,-0.73147 0.107746,-0.0573 c 0.08145,-0.0433 0.23924,-0.0509 0.646472,-0.031 2.649597,0.12926 4.62812,0.77919 5.945774,1.95314 l 0.235265,0.20961 0.368111,-0.30573 c 0.783392,-0.65064 1.575813,-1.05634 2.706898,-1.38585 1.340886,-0.39063 3.996497,-0.64233 3.823483,-0.36239 -0.01494,0.0242 -0.0016,0.0387 0.02989,0.0322 0.04512,-0.009 0.05955,0.13406 0.0689,0.68501 l 0.01183,0.69685 0.534691,0.0143 0.534686,0.0143 0.118846,0.0889 c 0.06537,0.0489 0.158834,0.14241 0.207705,0.20787 l 0.08886,0.11901 0.01237,5.80433 c 0.01432,6.71701 0.04745,6.178 -0.394618,6.42003 l -0.134936,0.0739 -2.872331,0.0125 -2.872332,0.0125 -0.02741,0.14611 c -0.213095,1.1359 -1.688121,1.80575 -3.125538,1.41939 z m 1.970555,-1.33152 c 0.584386,-1.08997 1.23337,-1.26972 4.588977,-1.27102 l 1.928647,-7.8e-4 v -5.40882 -5.40883 h -0.280141 -0.280138 v 4.59734 4.59734 l -0.07133,0.0788 -0.07133,0.0788 h -0.694797 c -2.460394,0 -4.480711,0.87682 -5.536257,2.40273 l -0.09689,0.14007 h -0.526501 -0.526499 l -0.08146,-0.14007 c -0.767049,-1.31895 -2.981846,-2.33188 -5.216656,-2.38584 -1.052314,-0.0254 -1.083587,-0.0297 -1.123315,-0.15489 -0.01654,-0.0521 -0.02839,-2.14661 -0.02634,-4.6545 l 0.0037,-4.55981 h -0.278215 -0.278215 l -0.0025,2.18724 c -0.0014,1.20298 -0.0062,3.63695 -0.01077,5.40882 l -0.0083,3.2216 1.902528,-1e-5 c 3.375074,0 4.184456,0.21686 4.606391,1.23421 0.182511,0.44006 0.0939,0.40684 1.049803,0.39364 l 0.844919,-0.0117 z m -1.498643,-6.59312 v -5.01967 l -0.334012,-0.28503 c -0.930629,-0.79419 -2.412598,-1.43384 -3.692451,-1.59375 l -0.240259,-0.03 v 4.04971 4.0497 l 0.441757,0.0252 c 1.755986,0.10027 3.741809,1.1906 3.409042,1.87176 -0.126097,0.25812 -0.277139,0.24761 -0.656776,-0.0457 -0.976766,-0.75469 -2.871408,-1.31123 -3.621313,-1.06374 l -0.166394,0.0549 -0.134141,-0.0792 c -0.102454,-0.0605 -0.134468,-0.11013 -0.135531,-0.21001 -7.8e-4,-0.0719 -1.72e-4,-2.07505 0.0014,-4.45137 l 0.0027,-4.3206 h -0.238393 -0.238395 v 4.99939 4.99939 l 0.204716,9.8e-4 c 2.074949,0.0105 3.910018,0.65721 5.095964,1.79593 0.154294,0.14815 0.285384,0.2699 0.291311,0.27055 0.0059,5.9e-4 0.01077,-2.25765 0.01077,-5.01847 z m 1.994995,4.13932 c 1.108412,-0.71958 2.346146,-1.08241 3.984885,-1.16811 l 0.571051,-0.0299 v -4.99458 -4.99459 H 96.98895 96.751909 v 4.43599 4.43598 l -0.117839,0.0927 c -0.09362,0.0736 -0.14455,0.0854 -0.247814,0.057 -0.902949,-0.24796 -2.8742,0.32312 -3.707532,1.07409 -0.262213,0.23629 -0.442698,0.26908 -0.610966,0.111 -0.64319,-0.60424 1.462488,-1.81506 3.40198,-1.95623 l 0.420207,-0.0306 v -4.04533 c 0,-3.20756 -0.01116,-4.04531 -0.05387,-4.04527 -0.884174,9.8e-4 -3.549553,1.05136 -3.837394,1.51227 -0.02827,0.0453 -0.06763,0.0823 -0.08745,0.0823 -0.01983,0 -0.09274,0.0567 -0.162026,0.12598 l -0.12598,0.12598 v 5.05152 5.05152 l 0.346483,-0.33102 c 0.190567,-0.18207 0.505722,-0.43441 0.700347,-0.56076 z"
       id="path856" /><path
       style="fill:#ff7f2a;fill-opacity:1;stroke-width:0.0430982"
       d="m 92.073795,135.6883 c -0.558388,-0.55839 1.439535,-1.83364 2.87275,-1.83364 0.537132,0 0.539443,0.63332 0.0026,0.70931 -0.772634,0.10935 -1.713366,0.53119 -2.269109,1.01751 -0.28291,0.24757 -0.438127,0.27492 -0.60623,0.10682 z"
       id="path878" /><path
       style="fill:#ff7f2a;fill-opacity:1;stroke-width:0.0430982"
       d="m 92.089069,137.50702 c -0.109301,-0.0912 -0.13704,-0.18141 -0.125836,-0.40926 0.0276,-0.56135 2.4465,-1.6945 3.208782,-1.50318 0.445959,0.11193 0.262785,0.68218 -0.234137,0.72891 -0.651292,0.0612 -1.495709,0.43881 -2.150343,0.96151 -0.430004,0.34334 -0.51911,0.37166 -0.698466,0.22202 z"
       id="path876" /><path
       style="fill:#ff7f2a;fill-opacity:1;stroke-width:0.0430982"
       d="m 92.073795,139.26545 c -0.07948,-0.0795 -0.105786,-0.15183 -0.105786,-0.2909 v -0.18511 l 0.310288,-0.29411 c 0.780463,-0.73979 2.522212,-1.35517 2.918613,-1.03119 0.23844,0.19488 0.11372,0.58574 -0.20312,0.63657 -0.924776,0.14834 -1.761835,0.5252 -2.314661,1.0421 -0.271766,0.25411 -0.439818,0.28815 -0.605334,0.12264 z"
       id="path874" /><path
       style="fill:#ff7f2a;fill-opacity:1;stroke-width:0.0430982"
       d="m 92.15678,141.07438 c -0.154871,-0.0651 -0.188771,-0.13438 -0.188771,-0.38566 v -0.1839 l 0.204716,-0.2036 c 0.679293,-0.67558 2.266281,-1.33395 2.919903,-1.21134 0.04741,0.009 0.11132,0.0177 0.142029,0.0195 0.443076,0.0262 0.305697,0.65562 -0.155835,0.71402 -0.901764,0.11411 -1.647561,0.43398 -2.313496,0.99227 -0.11852,0.0994 -0.274055,0.21078 -0.345632,0.24761 l -0.130139,0.067 z"
       id="path872" /><path
       style="fill:#ff7f2a;fill-opacity:1;stroke-width:0.0430982"
       d="m 89.760726,135.67071 c -0.527389,-0.45961 -1.251115,-0.81149 -2.101637,-1.02185 -0.633156,-0.1566 -0.690472,-0.19433 -0.690472,-0.45452 0,-0.12414 0.02715,-0.18256 0.118521,-0.25505 l 0.118521,-0.094 0.284063,0.0259 c 1.365673,0.12456 3.119027,1.18512 2.836384,1.71566 -0.127503,0.23933 -0.349244,0.27223 -0.56538,0.0839 z"
       id="path870" /><path
       style="fill:#ff7f2a;fill-opacity:1;stroke-width:0.0430982"
       d="m 89.5296,137.30087 c -0.606069,-0.4781 -1.357988,-0.82312 -2.105622,-0.96617 -0.490123,-0.0938 -0.711554,-0.47267 -0.402673,-0.68902 0.533658,-0.37379 3.243749,0.82398 3.309966,1.4629 0.05704,0.55041 -0.253328,0.62486 -0.801671,0.19229 z"
       id="path868" /><path
       style="fill:#ff7f2a;fill-opacity:1;stroke-width:0.0430982"
       d="m 89.537568,139.06839 c -0.580833,-0.46602 -1.334757,-0.81504 -1.985786,-0.91929 -0.67365,-0.10787 -0.846997,-0.76038 -0.202006,-0.76038 1.440589,0 3.443715,1.30772 2.87471,1.87673 -0.165707,0.1657 -0.273234,0.13486 -0.686918,-0.19706 z"
       id="path866" /><path
       style="fill:#ff7f2a;fill-opacity:1;stroke-width:0.0430982"
       d="m 89.704414,140.92196 c -0.657426,-0.569 -1.533225,-0.97756 -2.301789,-1.07378 -0.521857,-0.0653 -0.769089,-0.40665 -0.482456,-0.66605 0.406003,-0.36743 2.425587,0.31071 3.15559,1.05959 0.522654,0.53617 0.182381,1.15949 -0.371345,0.68024 z"
       id="path864" /><path
       style="fill:#ff7f2a;fill-opacity:1;stroke-width:0.0430982"
       d="m 93.864483,144.51238 c 1.205944,-0.55879 2.234653,-0.78823 3.534154,-0.78823 h 0.477737 l 0.105787,0.10579 c 0.08019,0.0802 0.105786,0.15157 0.105786,0.29501 0,0.30521 -0.02409,0.31367 -1.055904,0.3711 -0.497786,0.0277 -1.176582,0.0894 -1.508439,0.13707 -0.454122,0.0653 -0.783573,0.084 -1.331848,0.0759 l -0.728473,-0.0108 z"
       id="path862" /><path
       style="fill:#ff7f2a;fill-opacity:1;stroke-width:0.0430982"
       d="m 87.334946,144.68564 c -0.09481,-0.008 -0.424808,-0.0435 -0.733314,-0.078 -0.308509,-0.0345 -0.948515,-0.0847 -1.422241,-0.11155 -0.946203,-0.0536 -0.962569,-0.059 -0.998548,-0.32723 -0.01878,-0.14 -0.0034,-0.19315 0.08611,-0.29684 l 0.108979,-0.12631 0.72529,0.004 c 1.401916,0.008 2.887176,0.37952 3.677518,0.92008 0.06231,0.0426 -1.008876,0.0543 -1.44379,0.0158 z"
       id="path860" /></g></svg>
